G04 #@! TF.GenerationSoftware,KiCad,Pcbnew,(5.99.0-12639-gf606679164)*
G04 #@! TF.CreationDate,2021-10-23T17:35:33+02:00*
G04 #@! TF.ProjectId,IDB_reborn,4944425f-7265-4626-9f72-6e2e6b696361,rev?*
G04 #@! TF.SameCoordinates,Original*
G04 #@! TF.FileFunction,Soldermask,Top*
G04 #@! TF.FilePolarity,Negative*
%FSLAX46Y46*%
G04 Gerber Fmt 4.6, Leading zero omitted, Abs format (unit mm)*
G04 Created by KiCad (PCBNEW (5.99.0-12639-gf606679164)) date 2021-10-23 17:35:33*
%MOMM*%
%LPD*%
G01*
G04 APERTURE LIST*
%ADD10C,0.750000*%
%ADD11C,0.010000*%
%ADD12C,1.750000*%
%ADD13C,3.987800*%
%ADD14C,3.048000*%
%ADD15O,1.700000X1.700000*%
%ADD16C,0.650000*%
%ADD17O,1.000000X2.100000*%
%ADD18O,1.000000X1.600000*%
G04 APERTURE END LIST*
D10*
X103471571Y-185096392D02*
X102471571Y-183667821D01*
X101757285Y-185096392D02*
X101757285Y-182096392D01*
X102900142Y-182096392D01*
X103185857Y-182239250D01*
X103328714Y-182382107D01*
X103471571Y-182667821D01*
X103471571Y-183096392D01*
X103328714Y-183382107D01*
X103185857Y-183524964D01*
X102900142Y-183667821D01*
X101757285Y-183667821D01*
X104757285Y-183524964D02*
X105757285Y-183524964D01*
X106185857Y-185096392D02*
X104757285Y-185096392D01*
X104757285Y-182096392D01*
X106185857Y-182096392D01*
X108471571Y-183524964D02*
X108900142Y-183667821D01*
X109043000Y-183810678D01*
X109185857Y-184096392D01*
X109185857Y-184524964D01*
X109043000Y-184810678D01*
X108900142Y-184953535D01*
X108614428Y-185096392D01*
X107471571Y-185096392D01*
X107471571Y-182096392D01*
X108471571Y-182096392D01*
X108757285Y-182239250D01*
X108900142Y-182382107D01*
X109043000Y-182667821D01*
X109043000Y-182953535D01*
X108900142Y-183239250D01*
X108757285Y-183382107D01*
X108471571Y-183524964D01*
X107471571Y-183524964D01*
X111043000Y-182096392D02*
X111614428Y-182096392D01*
X111900142Y-182239250D01*
X112185857Y-182524964D01*
X112328714Y-183096392D01*
X112328714Y-184096392D01*
X112185857Y-184667821D01*
X111900142Y-184953535D01*
X111614428Y-185096392D01*
X111043000Y-185096392D01*
X110757285Y-184953535D01*
X110471571Y-184667821D01*
X110328714Y-184096392D01*
X110328714Y-183096392D01*
X110471571Y-182524964D01*
X110757285Y-182239250D01*
X111043000Y-182096392D01*
X115328714Y-185096392D02*
X114328714Y-183667821D01*
X113614428Y-185096392D02*
X113614428Y-182096392D01*
X114757285Y-182096392D01*
X115043000Y-182239250D01*
X115185857Y-182382107D01*
X115328714Y-182667821D01*
X115328714Y-183096392D01*
X115185857Y-183382107D01*
X115043000Y-183524964D01*
X114757285Y-183667821D01*
X113614428Y-183667821D01*
X116614428Y-185096392D02*
X116614428Y-182096392D01*
X118328714Y-185096392D01*
X118328714Y-182096392D01*
D11*
X81576333Y-173582583D02*
X79459667Y-173582583D01*
X79459667Y-173582583D02*
X79459667Y-171465917D01*
X79459667Y-171465917D02*
X81576333Y-171465917D01*
X81576333Y-171465917D02*
X81576333Y-173582583D01*
X81576333Y-173582583D02*
X81576333Y-173582583D01*
G36*
X81576333Y-173582583D02*
G01*
X79459667Y-173582583D01*
X79459667Y-171465917D01*
X81576333Y-171465917D01*
X81576333Y-173582583D01*
G37*
X81576333Y-173582583D02*
X79459667Y-173582583D01*
X79459667Y-171465917D01*
X81576333Y-171465917D01*
X81576333Y-173582583D01*
X81576333Y-185224250D02*
X79459667Y-185224250D01*
X79459667Y-185224250D02*
X79459667Y-177180917D01*
X79459667Y-177180917D02*
X81576333Y-177180917D01*
X81576333Y-177180917D02*
X81576333Y-185224250D01*
X81576333Y-185224250D02*
X81576333Y-185224250D01*
G36*
X81576333Y-185224250D02*
G01*
X79459667Y-185224250D01*
X79459667Y-177180917D01*
X81576333Y-177180917D01*
X81576333Y-185224250D01*
G37*
X81576333Y-185224250D02*
X79459667Y-185224250D01*
X79459667Y-177180917D01*
X81576333Y-177180917D01*
X81576333Y-185224250D01*
X91101333Y-185224250D02*
X88984667Y-185224250D01*
X88984667Y-185224250D02*
X88984667Y-179509250D01*
X88984667Y-179509250D02*
X84751333Y-179509250D01*
X84751333Y-179509250D02*
X84751333Y-183107583D01*
X84751333Y-183107583D02*
X87926333Y-183107583D01*
X87926333Y-183107583D02*
X87926333Y-185224250D01*
X87926333Y-185224250D02*
X82634667Y-185224250D01*
X82634667Y-185224250D02*
X82634667Y-177180917D01*
X82634667Y-177180917D02*
X88984667Y-177180917D01*
X88984667Y-177180917D02*
X88984667Y-171465917D01*
X88984667Y-171465917D02*
X91101333Y-171465917D01*
X91101333Y-171465917D02*
X91101333Y-185224250D01*
X91101333Y-185224250D02*
X91101333Y-185224250D01*
G36*
X91101333Y-185224250D02*
G01*
X88984667Y-185224250D01*
X88984667Y-179509250D01*
X84751333Y-179509250D01*
X84751333Y-183107583D01*
X87926333Y-183107583D01*
X87926333Y-185224250D01*
X82634667Y-185224250D01*
X82634667Y-177180917D01*
X88984667Y-177180917D01*
X88984667Y-171465917D01*
X91101333Y-171465917D01*
X91101333Y-185224250D01*
G37*
X91101333Y-185224250D02*
X88984667Y-185224250D01*
X88984667Y-179509250D01*
X84751333Y-179509250D01*
X84751333Y-183107583D01*
X87926333Y-183107583D01*
X87926333Y-185224250D01*
X82634667Y-185224250D01*
X82634667Y-177180917D01*
X88984667Y-177180917D01*
X88984667Y-171465917D01*
X91101333Y-171465917D01*
X91101333Y-185224250D01*
X94276333Y-183107583D02*
X98509667Y-183107583D01*
X98509667Y-183107583D02*
X98509667Y-179509250D01*
X98509667Y-179509250D02*
X95334667Y-179509250D01*
X95334667Y-179509250D02*
X95334667Y-177180917D01*
X95334667Y-177180917D02*
X100626333Y-177180917D01*
X100626333Y-177180917D02*
X100626333Y-185224250D01*
X100626333Y-185224250D02*
X92159667Y-185224250D01*
X92159667Y-185224250D02*
X92159667Y-171465917D01*
X92159667Y-171465917D02*
X94276333Y-171465917D01*
X94276333Y-171465917D02*
X94276333Y-183107583D01*
X94276333Y-183107583D02*
X94276333Y-183107583D01*
G36*
X94276333Y-183107583D02*
G01*
X98509667Y-183107583D01*
X98509667Y-179509250D01*
X95334667Y-179509250D01*
X95334667Y-177180917D01*
X100626333Y-177180917D01*
X100626333Y-185224250D01*
X92159667Y-185224250D01*
X92159667Y-171465917D01*
X94276333Y-171465917D01*
X94276333Y-183107583D01*
G37*
X94276333Y-183107583D02*
X98509667Y-183107583D01*
X98509667Y-179509250D01*
X95334667Y-179509250D01*
X95334667Y-177180917D01*
X100626333Y-177180917D01*
X100626333Y-185224250D01*
X92159667Y-185224250D01*
X92159667Y-171465917D01*
X94276333Y-171465917D01*
X94276333Y-183107583D01*
D12*
X-5080000Y-101531250D03*
D13*
X0Y-101531250D03*
D12*
X5080000Y-101531250D03*
D13*
X19000000Y-101531250D03*
D12*
X13920000Y-101531250D03*
X24080000Y-101531250D03*
X32920000Y-101531250D03*
X43080000Y-101531250D03*
D13*
X38000000Y-101531250D03*
D12*
X51920000Y-101531250D03*
X62080000Y-101531250D03*
D13*
X57000000Y-101531250D03*
X76000000Y-101531250D03*
D12*
X81080000Y-101531250D03*
X70920000Y-101531250D03*
X100080000Y-101531250D03*
X89920000Y-101531250D03*
D13*
X95000000Y-101531250D03*
D12*
X108920000Y-101531250D03*
X119080000Y-101531250D03*
D13*
X114000000Y-101531250D03*
X152000000Y-101531250D03*
D12*
X157080000Y-101531250D03*
X146920000Y-101531250D03*
X165920000Y-101531250D03*
D13*
X171000000Y-101531250D03*
D12*
X176080000Y-101531250D03*
X184920000Y-101531250D03*
D13*
X190000000Y-101531250D03*
D12*
X195080000Y-101531250D03*
D13*
X209000000Y-101531250D03*
D12*
X214080000Y-101531250D03*
X203920000Y-101531250D03*
D13*
X228000000Y-101531250D03*
D12*
X233080000Y-101531250D03*
X222920000Y-101531250D03*
D13*
X244562000Y-109786250D03*
X256500000Y-101531250D03*
D12*
X251420000Y-101531250D03*
D13*
X268438000Y-109786250D03*
D14*
X244562000Y-94546250D03*
D12*
X261580000Y-101531250D03*
D14*
X268438000Y-94546250D03*
D12*
X9830000Y-120531250D03*
X-330000Y-120531250D03*
D13*
X4750000Y-120531250D03*
D12*
X33580000Y-120531250D03*
X23420000Y-120531250D03*
D13*
X28500000Y-120531250D03*
X47500000Y-120531250D03*
D12*
X42420000Y-120531250D03*
X52580000Y-120531250D03*
X61420000Y-120531250D03*
D13*
X66500000Y-120531250D03*
D12*
X71580000Y-120531250D03*
D13*
X85500000Y-120531250D03*
D12*
X80420000Y-120531250D03*
X90580000Y-120531250D03*
D13*
X104500000Y-120531250D03*
D12*
X99420000Y-120531250D03*
X109580000Y-120531250D03*
X128580000Y-120531250D03*
D13*
X123500000Y-120531250D03*
D12*
X118420000Y-120531250D03*
X147580000Y-120531250D03*
D13*
X142500000Y-120531250D03*
D12*
X137420000Y-120531250D03*
X166580000Y-120531250D03*
D13*
X161500000Y-120531250D03*
D12*
X156420000Y-120531250D03*
D13*
X180500000Y-120531250D03*
D12*
X185580000Y-120531250D03*
X175420000Y-120531250D03*
X204580000Y-120531250D03*
D13*
X199500000Y-120531250D03*
D12*
X194420000Y-120531250D03*
D13*
X218500000Y-120531250D03*
D12*
X223580000Y-120531250D03*
X213420000Y-120531250D03*
X242580000Y-120531250D03*
X232420000Y-120531250D03*
D13*
X237500000Y-120531250D03*
X261250000Y-120531250D03*
D12*
X266330000Y-120531250D03*
X256170000Y-120531250D03*
D13*
X7125000Y-139531250D03*
D12*
X12205000Y-139531250D03*
X2045000Y-139531250D03*
X47170000Y-139531250D03*
D13*
X52250000Y-139531250D03*
D12*
X57330000Y-139531250D03*
X66170000Y-139531250D03*
X76330000Y-139531250D03*
D13*
X71250000Y-139531250D03*
D12*
X85170000Y-139531250D03*
D13*
X90250000Y-139531250D03*
D12*
X95330000Y-139531250D03*
X104170000Y-139531250D03*
X114330000Y-139531250D03*
D13*
X109250000Y-139531250D03*
D12*
X133330000Y-139531250D03*
D13*
X128250000Y-139531250D03*
D12*
X123170000Y-139531250D03*
X171330000Y-139531250D03*
X161170000Y-139531250D03*
D13*
X166250000Y-139531250D03*
D12*
X190330000Y-139531250D03*
D13*
X185250000Y-139531250D03*
D12*
X180170000Y-139531250D03*
X199170000Y-139531250D03*
D13*
X204250000Y-139531250D03*
D12*
X209330000Y-139531250D03*
X218170000Y-139531250D03*
D13*
X223250000Y-139531250D03*
D12*
X228330000Y-139531250D03*
X247330000Y-139531250D03*
D13*
X242250000Y-139531250D03*
D12*
X237170000Y-139531250D03*
X7455000Y-158531250D03*
D13*
X2375000Y-158531250D03*
D12*
X-2705000Y-158531250D03*
X18670000Y-158531250D03*
X28830000Y-158531250D03*
D13*
X23750000Y-158531250D03*
X42750000Y-158531250D03*
D12*
X37670000Y-158531250D03*
X47830000Y-158531250D03*
X56670000Y-158531250D03*
X66830000Y-158531250D03*
D13*
X61750000Y-158531250D03*
D12*
X85830000Y-158531250D03*
D13*
X80750000Y-158531250D03*
D12*
X75670000Y-158531250D03*
X104830000Y-158531250D03*
D13*
X99750000Y-158531250D03*
D12*
X94670000Y-158531250D03*
D13*
X118750000Y-158531250D03*
D12*
X113670000Y-158531250D03*
X123830000Y-158531250D03*
X142830000Y-158531250D03*
X132670000Y-158531250D03*
D13*
X137750000Y-158531250D03*
X175750000Y-158531250D03*
D12*
X170670000Y-158531250D03*
X180830000Y-158531250D03*
D13*
X194750000Y-158531250D03*
D12*
X189670000Y-158531250D03*
X199830000Y-158531250D03*
D13*
X213750000Y-158531250D03*
D12*
X208670000Y-158531250D03*
X218830000Y-158531250D03*
X244955000Y-158531250D03*
X234795000Y-158531250D03*
D13*
X239875000Y-158531250D03*
X4750000Y-177531250D03*
D12*
X9830000Y-177531250D03*
X-330000Y-177531250D03*
X23420000Y-177531250D03*
D13*
X28500000Y-177531250D03*
D12*
X33580000Y-177531250D03*
D13*
X52250000Y-177531250D03*
D12*
X57330000Y-177531250D03*
X47170000Y-177531250D03*
X138080000Y-177531250D03*
D14*
X190150000Y-184516250D03*
D13*
X133000000Y-177531250D03*
D12*
X127920000Y-177531250D03*
D14*
X75850000Y-184516250D03*
D13*
X190150000Y-169276250D03*
X75850000Y-169276250D03*
X213750000Y-177531250D03*
D12*
X208670000Y-177531250D03*
X218830000Y-177531250D03*
X232420000Y-177531250D03*
D13*
X237500000Y-177531250D03*
D12*
X242580000Y-177531250D03*
X266330000Y-177531250D03*
X256170000Y-177531250D03*
D13*
X261250000Y-177531250D03*
D12*
X241920000Y-101531250D03*
D13*
X247000000Y-101531250D03*
D12*
X252080000Y-101531250D03*
D13*
X271880000Y-118093250D03*
D12*
X263625000Y-135111250D03*
D13*
X263625000Y-130031250D03*
D14*
X256640000Y-118093250D03*
D12*
X263625000Y-124951250D03*
D14*
X256640000Y-141969250D03*
D13*
X271880000Y-141969250D03*
D12*
X-2705000Y-139531250D03*
D13*
X2375000Y-139531250D03*
D12*
X7455000Y-139531250D03*
D14*
X23813000Y-151546250D03*
D12*
X16955000Y-158531250D03*
D13*
X23813000Y-166786250D03*
D12*
X6795000Y-158531250D03*
D13*
X-63000Y-166786250D03*
D14*
X-63000Y-151546250D03*
D13*
X11875000Y-158531250D03*
D14*
X237437000Y-151546250D03*
D13*
X249375000Y-158531250D03*
D14*
X261313000Y-151546250D03*
D13*
X261313000Y-166786250D03*
X237437000Y-166786250D03*
D12*
X254455000Y-158531250D03*
X244295000Y-158531250D03*
X260920000Y-101531250D03*
X271080000Y-101531250D03*
D13*
X266000000Y-101531250D03*
D12*
X142170000Y-139531250D03*
D13*
X147250000Y-139531250D03*
D12*
X152330000Y-139531250D03*
X38330000Y-139531250D03*
X28170000Y-139531250D03*
D13*
X33250000Y-139531250D03*
D12*
X271080000Y-158531250D03*
D13*
X266000000Y-158531250D03*
D12*
X260920000Y-158531250D03*
X161830000Y-158531250D03*
D13*
X156750000Y-158531250D03*
D12*
X151670000Y-158531250D03*
D13*
X242187000Y-147786250D03*
X266063000Y-147786250D03*
D12*
X249045000Y-139531250D03*
D14*
X242187000Y-132546250D03*
X266063000Y-132546250D03*
D13*
X254125000Y-139531250D03*
D12*
X259205000Y-139531250D03*
D15*
X180594000Y-180271250D03*
X183134000Y-180271250D03*
D12*
X138080560Y-101527200D03*
D13*
X133000560Y-101527200D03*
D12*
X127920560Y-101527200D03*
D16*
X130079000Y-93118000D03*
X135859000Y-93118000D03*
D17*
X137289000Y-93648000D03*
D18*
X137289000Y-89468000D03*
D17*
X128649000Y-93648000D03*
D18*
X128649000Y-89468000D03*
M02*
