M48
; DRILL file {KiCad (5.99.0-12639-gf606679164)} date Sat Oct 23 17:35:58 2021
; FORMAT={-:-/ absolute / inch / decimal}
; #@! TF.CreationDate,2021-10-23T17:35:58+02:00
; #@! TF.GenerationSoftware,Kicad,Pcbnew,(5.99.0-12639-gf606679164)
; #@! TF.FileFunction,Plated,1,2,PTH
FMAT,2
INCH
; #@! TA.AperFunction,Plated,PTH,ViaDrill
T1C0.0157
; #@! TA.AperFunction,Plated,PTH,ComponentDrill
T2C0.0236
; #@! TA.AperFunction,Plated,PTH,ComponentDrill
T3C0.0394
; #@! TA.AperFunction,Plated,PTH,ComponentDrill
T4C0.0409
; #@! TA.AperFunction,Plated,PTH,ComponentDrill
T5C0.0579
%
G90
G05
T1
X1.315Y-7.1523
X2.05Y-7.1223
X2.2811Y-6.4284
X3.03Y-6.4373
X3.78Y-6.4323
X4.555Y-4.7723
X4.75Y-5.6373
X4.82Y-5.8473
X4.86Y-6.6273
X4.958Y-7.0893
X5.08Y-4.3073
X5.0962Y-6.2473
X5.11Y-3.7923
X5.12Y-6.2773
X5.16Y-3.775
X5.2Y-3.79
X5.2475Y-4.5648
X5.29Y-4.6223
X5.32Y-6.4473
X5.325Y-4.6223
X5.3275Y-5.8448
X5.3298Y-3.7691
X5.3357Y-3.7992
X5.3818Y-5.6905
X5.405Y-4.3123
X5.405Y-5.7473
X5.435Y-6.0873
X5.465Y-3.7973
X5.5082Y-3.9591
X5.715Y-6.4473
X5.73Y-6.6273
X5.755Y-6.9673
X5.795Y-6.7923
X5.815Y-6.2373
X5.815Y-6.3723
X5.85Y-6.4023
X5.8525Y-6.1648
X5.855Y-6.9273
X5.865Y-7.0123
X5.88Y-6.4473
X5.91Y-6.4823
X5.92Y-7.2173
X5.955Y-7.2173
X6.025Y-6.5623
X6.03Y-6.3973
X6.085Y-6.5523
X6.12Y-6.5773
X6.155Y-6.5723
X6.165Y-7.2823
X6.325Y-6.4523
X6.335Y-6.5823
X6.41Y-4.1673
X6.485Y-7.3123
X6.57Y-6.8523
X6.595Y-7.0723
X6.6327Y-6.345
X6.65Y-6.8723
X6.695Y-6.7173
X6.7167Y-6.7389
X6.73Y-4.9773
X6.74Y-6.7623
X6.7617Y-6.7839
X6.77Y-7.1586
X6.815Y-6.5623
X6.84Y-6.6023
X6.865Y-6.6423
X6.87Y-7.0673
X6.88Y-5.6423
X7.165Y-6.6123
X7.51Y-6.4123
X8.2654Y-6.3919
X9.1561Y-6.4162
X10.1354Y-6.4377
X10.566Y-4.8388
T3
X7.11Y-6.6923
X7.11Y-6.7923
X7.11Y-6.8923
X7.11Y-7.0973
X7.21Y-6.6923
X7.21Y-6.7923
X7.21Y-6.8923
X7.21Y-7.0973
T4
X-0.05Y-4.1973
X0.0435Y-5.6934
X0.05Y-4.1973
X0.1435Y-5.6934
X0.2305Y-5.6934
X0.3305Y-5.6934
T5
X-0.15Y-3.8973
X-0.0565Y-5.3934
X-0.0565Y-6.1414
X0.037Y-4.6453
X0.037Y-6.8894
X0.1Y-3.7973
X0.1305Y-5.3934
X0.1935Y-5.2934
X0.1935Y-6.0414
X0.287Y-4.5453
X0.287Y-6.7894
X0.3175Y-6.1414
X0.3805Y-5.2934
X0.5675Y-6.0414
X0.598Y-3.8973
X0.785Y-6.1414
X0.848Y-3.7973
X0.972Y-4.6453
X0.972Y-6.8894
X1.035Y-6.0414
X1.1591Y-5.3934
X1.222Y-4.5453
X1.222Y-6.7894
X1.3461Y-3.8973
X1.4091Y-5.2934
X1.5331Y-6.1414
X1.5961Y-3.7973
X1.7201Y-4.6453
X1.7831Y-6.0414
X1.9071Y-5.3934
X1.9071Y-6.8894
X1.9701Y-4.5453
X2.0941Y-3.8973
X2.1571Y-5.2934
X2.1571Y-6.7894
X2.2811Y-6.1414
X2.3441Y-3.7973
X2.4681Y-4.6453
X2.5311Y-6.0414
X2.6551Y-5.3934
X2.7181Y-4.5453
X2.8421Y-3.8973
X2.9051Y-5.2934
X3.0291Y-6.1414
X3.0921Y-3.7973
X3.2161Y-4.6453
X3.2791Y-6.0414
X3.4031Y-5.3934
X3.4661Y-4.5453
X3.5902Y-3.8973
X3.6531Y-5.2934
X3.7772Y-6.1414
X3.8402Y-3.7973
X3.9642Y-4.6453
X4.0272Y-6.0414
X4.1512Y-5.3934
X4.2142Y-4.5453
X4.3382Y-3.8973
X4.4012Y-5.2934
X4.5252Y-6.1414
X4.5882Y-3.7973
X4.7122Y-4.6453
X4.7752Y-6.0414
X4.8992Y-5.3934
X4.9622Y-4.5453
X5.0862Y-6.8894
X5.1362Y-4.1971
X5.1492Y-5.2934
X5.2732Y-6.1414
X5.3362Y-6.7894
X5.3862Y-4.0971
X5.4602Y-4.6453
X5.5232Y-6.0414
X5.6472Y-5.3934
X5.7102Y-4.5453
X5.8343Y-3.8973
X5.8972Y-5.2934
X6.0213Y-6.1414
X6.0843Y-3.7973
X6.2083Y-4.6453
X6.2713Y-6.0414
X6.3953Y-5.3934
X6.4583Y-4.5453
X6.5823Y-3.8973
X6.6453Y-5.2934
X6.7693Y-6.1414
X6.8323Y-3.7973
X6.9563Y-4.6453
X7.0193Y-6.0414
X7.1433Y-5.3934
X7.2063Y-4.5453
X7.3303Y-3.8973
X7.3933Y-5.2934
X7.5173Y-6.1414
X7.5803Y-3.7973
X7.7043Y-4.6453
X7.7673Y-6.0414
X7.8913Y-5.3934
X7.9543Y-4.5453
X8.0783Y-3.8973
X8.1413Y-5.2934
X8.2654Y-6.1414
X8.2654Y-6.8894
X8.3283Y-3.7973
X8.4524Y-4.6453
X8.5154Y-6.0414
X8.5154Y-6.7894
X8.6394Y-5.3934
X8.7024Y-4.5453
X8.8264Y-3.8973
X8.8894Y-5.2934
X9.0764Y-3.7973
X9.2004Y-4.6453
X9.2004Y-6.8894
X9.2939Y-6.1414
X9.3874Y-5.3934
X9.4504Y-4.5453
X9.4504Y-6.7894
X9.5439Y-6.0414
X9.5744Y-3.8973
X9.6374Y-5.2934
X9.6679Y-6.1414
X9.8244Y-3.7973
X9.8549Y-5.3934
X9.9179Y-6.0414
X9.9484Y-3.8973
X10.1049Y-5.2934
X10.1354Y-4.6453
X10.1354Y-6.8894
X10.1984Y-3.7973
X10.3224Y-3.8973
X10.3224Y-6.1414
X10.3854Y-4.5453
X10.3854Y-6.7894
X10.4789Y-4.9693
X10.5724Y-3.7973
X10.5724Y-6.0414
X10.5789Y-5.2193
T2
G00X5.0649Y-3.5106
M15
G01X5.0649Y-3.5342
M16
G05
G00X5.0649Y-3.6653
M15
G01X5.0649Y-3.7086
M16
G05
G00X5.4051Y-3.5106
M15
G01X5.4051Y-3.5342
M16
G05
G00X5.4051Y-3.6653
M15
G01X5.4051Y-3.7086
M16
G05
T0
M30
