M48
; DRILL file {KiCad (5.99.0-12639-gf606679164)} date Sat Oct 23 17:35:58 2021
; FORMAT={-:-/ absolute / inch / decimal}
; #@! TF.CreationDate,2021-10-23T17:35:58+02:00
; #@! TF.GenerationSoftware,Kicad,Pcbnew,(5.99.0-12639-gf606679164)
; #@! TF.FileFunction,NonPlated,1,2,NPTH
FMAT,2
INCH
; #@! TA.AperFunction,NonPlated,NPTH,ComponentDrill
T1C0.0256
; #@! TA.AperFunction,NonPlated,NPTH,ComponentDrill
T2C0.0689
; #@! TA.AperFunction,NonPlated,NPTH,ComponentDrill
T3C0.1200
; #@! TA.AperFunction,NonPlated,NPTH,ComponentDrill
T4C0.1570
%
G90
G05
T1
X5.1212Y-3.6661
X5.3488Y-3.6661
T2
X-0.2Y-3.9973
X-0.1065Y-5.4934
X-0.1065Y-6.2414
X-0.013Y-4.7453
X-0.013Y-6.9894
X0.0805Y-5.4934
X0.2Y-3.9973
X0.2675Y-6.2414
X0.2935Y-5.4934
X0.2935Y-6.2414
X0.387Y-4.7453
X0.387Y-6.9894
X0.4805Y-5.4934
X0.548Y-3.9973
X0.6675Y-6.2414
X0.735Y-6.2414
X0.922Y-4.7453
X0.922Y-6.9894
X0.948Y-3.9973
X1.1091Y-5.4934
X1.135Y-6.2414
X1.2961Y-3.9973
X1.322Y-4.7453
X1.322Y-6.9894
X1.4831Y-6.2414
X1.5091Y-5.4934
X1.6701Y-4.7453
X1.6961Y-3.9973
X1.8571Y-5.4934
X1.8571Y-6.9894
X1.8831Y-6.2414
X2.0441Y-3.9973
X2.0701Y-4.7453
X2.2311Y-6.2414
X2.2571Y-5.4934
X2.2571Y-6.9894
X2.4181Y-4.7453
X2.4441Y-3.9973
X2.6051Y-5.4934
X2.6311Y-6.2414
X2.7921Y-3.9973
X2.8181Y-4.7453
X2.9791Y-6.2414
X3.0051Y-5.4934
X3.1661Y-4.7453
X3.1921Y-3.9973
X3.3531Y-5.4934
X3.3791Y-6.2414
X3.5402Y-3.9973
X3.5661Y-4.7453
X3.7272Y-6.2414
X3.7531Y-5.4934
X3.9142Y-4.7453
X3.9402Y-3.9973
X4.1012Y-5.4934
X4.1272Y-6.2414
X4.2882Y-3.9973
X4.3142Y-4.7453
X4.4752Y-6.2414
X4.5012Y-5.4934
X4.6622Y-4.7453
X4.6882Y-3.9973
X4.8492Y-5.4934
X4.8752Y-6.2414
X5.0362Y-6.9894
X5.0362Y-3.9971
X5.0622Y-4.7453
X5.2232Y-6.2414
X5.2492Y-5.4934
X5.4102Y-4.7453
X5.4362Y-6.9894
X5.4362Y-3.9971
X5.5972Y-5.4934
X5.6232Y-6.2414
X5.7843Y-3.9973
X5.8102Y-4.7453
X5.9713Y-6.2414
X5.9972Y-5.4934
X6.1583Y-4.7453
X6.1843Y-3.9973
X6.3453Y-5.4934
X6.3713Y-6.2414
X6.5323Y-3.9973
X6.5583Y-4.7453
X6.7193Y-6.2414
X6.7453Y-5.4934
X6.9063Y-4.7453
X6.9323Y-3.9973
X7.0933Y-5.4934
X7.1193Y-6.2414
X7.2803Y-3.9973
X7.3063Y-4.7453
X7.4673Y-6.2414
X7.4933Y-5.4934
X7.6543Y-4.7453
X7.6803Y-3.9973
X7.8413Y-5.4934
X7.8673Y-6.2414
X8.0283Y-3.9973
X8.0543Y-4.7453
X8.2154Y-6.2414
X8.2154Y-6.9894
X8.2413Y-5.4934
X8.4024Y-4.7453
X8.4283Y-3.9973
X8.5894Y-5.4934
X8.6154Y-6.2414
X8.6154Y-6.9894
X8.7764Y-3.9973
X8.8024Y-4.7453
X8.9894Y-5.4934
X9.1504Y-4.7453
X9.1504Y-6.9894
X9.1764Y-3.9973
X9.2439Y-6.2414
X9.3374Y-5.4934
X9.5244Y-3.9973
X9.5504Y-4.7453
X9.5504Y-6.9894
X9.6179Y-6.2414
X9.6439Y-6.2414
X9.7374Y-5.4934
X9.8049Y-5.4934
X9.8984Y-3.9973
X9.9244Y-3.9973
X10.0179Y-6.2414
X10.0854Y-4.7453
X10.0854Y-6.9894
X10.2049Y-5.4934
X10.2724Y-3.9973
X10.2724Y-6.2414
X10.2984Y-3.9973
X10.3789Y-4.9193
X10.3789Y-5.3193
X10.4854Y-4.7453
X10.4854Y-6.9894
X10.6724Y-3.9973
X10.6724Y-6.2414
T3
X-0.0025Y-5.9664
X0.9375Y-5.9664
X2.9862Y-7.2644
X7.4862Y-7.2644
X9.3479Y-5.9664
X9.5349Y-5.2184
X9.6284Y-3.7223
X10.1039Y-4.6493
X10.1039Y-5.5893
X10.2879Y-5.9664
X10.4749Y-5.2184
X10.5684Y-3.7223
T4
X-0.0025Y-6.5664
X0.0Y-3.9973
X0.0935Y-5.4934
X0.0935Y-6.2414
X0.187Y-4.7453
X0.187Y-6.9894
X0.2805Y-5.4934
X0.4675Y-6.2414
X0.748Y-3.9973
X0.935Y-6.2414
X0.9375Y-6.5664
X1.122Y-4.7453
X1.122Y-6.9894
X1.3091Y-5.4934
X1.4961Y-3.9973
X1.6831Y-6.2414
X1.8701Y-4.7453
X2.0571Y-5.4934
X2.0571Y-6.9894
X2.2441Y-3.9973
X2.4311Y-6.2414
X2.6181Y-4.7453
X2.8051Y-5.4934
X2.9862Y-6.6644
X2.9921Y-3.9973
X3.1791Y-6.2414
X3.3661Y-4.7453
X3.5531Y-5.4934
X3.7402Y-3.9973
X3.9272Y-6.2414
X4.1142Y-4.7453
X4.3012Y-5.4934
X4.4882Y-3.9973
X4.6752Y-6.2414
X4.8622Y-4.7453
X5.0492Y-5.4934
X5.2362Y-6.9894
X5.2362Y-3.9971
X5.4232Y-6.2414
X5.6102Y-4.7453
X5.7972Y-5.4934
X5.9843Y-3.9973
X6.1713Y-6.2414
X6.3583Y-4.7453
X6.5453Y-5.4934
X6.7323Y-3.9973
X6.9193Y-6.2414
X7.1063Y-4.7453
X7.2933Y-5.4934
X7.4803Y-3.9973
X7.4862Y-6.6644
X7.6673Y-6.2414
X7.8543Y-4.7453
X8.0413Y-5.4934
X8.2283Y-3.9973
X8.4154Y-6.2414
X8.4154Y-6.9894
X8.6024Y-4.7453
X8.7894Y-5.4934
X8.9764Y-3.9973
X9.3479Y-6.5664
X9.3504Y-4.7453
X9.3504Y-6.9894
X9.4439Y-6.2414
X9.5349Y-5.8184
X9.5374Y-5.4934
X9.6284Y-4.3223
X9.7244Y-3.9973
X9.8179Y-6.2414
X10.0049Y-5.4934
X10.0984Y-3.9973
X10.2854Y-4.7453
X10.2854Y-6.9894
X10.2879Y-6.5664
X10.3789Y-5.1193
X10.4724Y-3.9973
X10.4724Y-6.2414
X10.4749Y-5.8184
X10.5684Y-4.3223
X10.7039Y-4.6493
X10.7039Y-5.5893
T0
M30
