G04 #@! TF.GenerationSoftware,KiCad,Pcbnew,(5.99.0-12639-gf606679164)*
G04 #@! TF.CreationDate,2021-10-23T17:35:33+02:00*
G04 #@! TF.ProjectId,IDB_reborn,4944425f-7265-4626-9f72-6e2e6b696361,rev?*
G04 #@! TF.SameCoordinates,Original*
G04 #@! TF.FileFunction,Legend,Bot*
G04 #@! TF.FilePolarity,Positive*
%FSLAX46Y46*%
G04 Gerber Fmt 4.6, Leading zero omitted, Abs format (unit mm)*
G04 Created by KiCad (PCBNEW (5.99.0-12639-gf606679164)) date 2021-10-23 17:35:33*
%MOMM*%
%LPD*%
G01*
G04 APERTURE LIST*
G04 Aperture macros list*
%AMRoundRect*
0 Rectangle with rounded corners*
0 $1 Rounding radius*
0 $2 $3 $4 $5 $6 $7 $8 $9 X,Y pos of 4 corners*
0 Add a 4 corners polygon primitive as box body*
4,1,4,$2,$3,$4,$5,$6,$7,$8,$9,$2,$3,0*
0 Add four circle primitives for the rounded corners*
1,1,$1+$1,$2,$3*
1,1,$1+$1,$4,$5*
1,1,$1+$1,$6,$7*
1,1,$1+$1,$8,$9*
0 Add four rect primitives between the rounded corners*
20,1,$1+$1,$2,$3,$4,$5,0*
20,1,$1+$1,$4,$5,$6,$7,0*
20,1,$1+$1,$6,$7,$8,$9,0*
20,1,$1+$1,$8,$9,$2,$3,0*%
%AMRotRect*
0 Rectangle, with rotation*
0 The origin of the aperture is its center*
0 $1 length*
0 $2 width*
0 $3 Rotation angle, in degrees counterclockwise*
0 Add horizontal line*
21,1,$1,$2,0,0,$3*%
G04 Aperture macros list end*
%ADD10C,0.150000*%
%ADD11C,0.120000*%
%ADD12C,0.250000*%
%ADD13C,1.750000*%
%ADD14C,3.987800*%
%ADD15C,2.250000*%
%ADD16C,1.905000*%
%ADD17R,1.905000X1.905000*%
%ADD18C,3.048000*%
%ADD19O,1.700000X1.700000*%
%ADD20R,1.200000X0.900000*%
%ADD21RoundRect,0.243750X-0.243750X-0.456250X0.243750X-0.456250X0.243750X0.456250X-0.243750X0.456250X0*%
%ADD22R,0.900000X1.200000*%
%ADD23RoundRect,0.243750X0.494975X0.150260X0.150260X0.494975X-0.494975X-0.150260X-0.150260X-0.494975X0*%
%ADD24RoundRect,0.243750X0.243750X0.456250X-0.243750X0.456250X-0.243750X-0.456250X0.243750X-0.456250X0*%
%ADD25RoundRect,0.243750X0.150260X-0.494975X0.494975X-0.150260X-0.150260X0.494975X-0.494975X0.150260X0*%
%ADD26RoundRect,0.243750X-0.150260X0.494975X-0.494975X0.150260X0.150260X-0.494975X0.494975X-0.150260X0*%
%ADD27RoundRect,0.250000X0.625000X-0.375000X0.625000X0.375000X-0.625000X0.375000X-0.625000X-0.375000X0*%
%ADD28C,1.700000*%
%ADD29R,1.700000X1.700000*%
%ADD30RoundRect,0.243750X0.456250X-0.243750X0.456250X0.243750X-0.456250X0.243750X-0.456250X-0.243750X0*%
%ADD31R,0.700000X1.000000*%
%ADD32R,0.700000X0.600000*%
%ADD33RotRect,1.500000X0.550000X315.000000*%
%ADD34RotRect,1.500000X0.550000X225.000000*%
%ADD35C,0.650000*%
%ADD36R,0.600000X1.450000*%
%ADD37R,0.300000X1.450000*%
%ADD38O,1.000000X2.100000*%
%ADD39O,1.000000X1.600000*%
%ADD40RotRect,1.400000X1.200000X135.000000*%
G04 APERTURE END LIST*
D10*
X187685428Y-170476630D02*
X187685428Y-169476630D01*
X187352095Y-170190916D01*
X187018761Y-169476630D01*
X187018761Y-170476630D01*
X186542571Y-170476630D02*
X186542571Y-169476630D01*
X186114000Y-170429011D02*
X185971142Y-170476630D01*
X185733047Y-170476630D01*
X185637809Y-170429011D01*
X185590190Y-170381392D01*
X185542571Y-170286154D01*
X185542571Y-170190916D01*
X185590190Y-170095678D01*
X185637809Y-170048059D01*
X185733047Y-170000440D01*
X185923523Y-169952821D01*
X186018761Y-169905202D01*
X186066380Y-169857583D01*
X186114000Y-169762345D01*
X186114000Y-169667107D01*
X186066380Y-169571869D01*
X186018761Y-169524250D01*
X185923523Y-169476630D01*
X185685428Y-169476630D01*
X185542571Y-169524250D01*
X184923523Y-169476630D02*
X184733047Y-169476630D01*
X184637809Y-169524250D01*
X184542571Y-169619488D01*
X184494952Y-169809964D01*
X184494952Y-170143297D01*
X184542571Y-170333773D01*
X184637809Y-170429011D01*
X184733047Y-170476630D01*
X184923523Y-170476630D01*
X185018761Y-170429011D01*
X185114000Y-170333773D01*
X185161619Y-170143297D01*
X185161619Y-169809964D01*
X185114000Y-169619488D01*
X185018761Y-169524250D01*
X184923523Y-169476630D01*
X179197333Y-169476630D02*
X178864000Y-170476630D01*
X178530666Y-169476630D01*
X177625904Y-170381392D02*
X177673523Y-170429011D01*
X177816380Y-170476630D01*
X177911619Y-170476630D01*
X178054476Y-170429011D01*
X178149714Y-170333773D01*
X178197333Y-170238535D01*
X178244952Y-170048059D01*
X178244952Y-169905202D01*
X178197333Y-169714726D01*
X178149714Y-169619488D01*
X178054476Y-169524250D01*
X177911619Y-169476630D01*
X177816380Y-169476630D01*
X177673523Y-169524250D01*
X177625904Y-169571869D01*
X176625904Y-170381392D02*
X176673523Y-170429011D01*
X176816380Y-170476630D01*
X176911619Y-170476630D01*
X177054476Y-170429011D01*
X177149714Y-170333773D01*
X177197333Y-170238535D01*
X177244952Y-170048059D01*
X177244952Y-169905202D01*
X177197333Y-169714726D01*
X177149714Y-169619488D01*
X177054476Y-169524250D01*
X176911619Y-169476630D01*
X176816380Y-169476630D01*
X176673523Y-169524250D01*
X176625904Y-169571869D01*
X186661619Y-175476630D02*
X186994952Y-175000440D01*
X187233047Y-175476630D02*
X187233047Y-174476630D01*
X186852095Y-174476630D01*
X186756857Y-174524250D01*
X186709238Y-174571869D01*
X186661619Y-174667107D01*
X186661619Y-174809964D01*
X186709238Y-174905202D01*
X186756857Y-174952821D01*
X186852095Y-175000440D01*
X187233047Y-175000440D01*
X186280666Y-175429011D02*
X186137809Y-175476630D01*
X185899714Y-175476630D01*
X185804476Y-175429011D01*
X185756857Y-175381392D01*
X185709238Y-175286154D01*
X185709238Y-175190916D01*
X185756857Y-175095678D01*
X185804476Y-175048059D01*
X185899714Y-175000440D01*
X186090190Y-174952821D01*
X186185428Y-174905202D01*
X186233047Y-174857583D01*
X186280666Y-174762345D01*
X186280666Y-174667107D01*
X186233047Y-174571869D01*
X186185428Y-174524250D01*
X186090190Y-174476630D01*
X185852095Y-174476630D01*
X185709238Y-174524250D01*
X185423523Y-174476630D02*
X184852095Y-174476630D01*
X185137809Y-175476630D02*
X185137809Y-174476630D01*
X187149714Y-172929011D02*
X187006857Y-172976630D01*
X186768761Y-172976630D01*
X186673523Y-172929011D01*
X186625904Y-172881392D01*
X186578285Y-172786154D01*
X186578285Y-172690916D01*
X186625904Y-172595678D01*
X186673523Y-172548059D01*
X186768761Y-172500440D01*
X186959238Y-172452821D01*
X187054476Y-172405202D01*
X187102095Y-172357583D01*
X187149714Y-172262345D01*
X187149714Y-172167107D01*
X187102095Y-172071869D01*
X187054476Y-172024250D01*
X186959238Y-171976630D01*
X186721142Y-171976630D01*
X186578285Y-172024250D01*
X185578285Y-172881392D02*
X185625904Y-172929011D01*
X185768761Y-172976630D01*
X185864000Y-172976630D01*
X186006857Y-172929011D01*
X186102095Y-172833773D01*
X186149714Y-172738535D01*
X186197333Y-172548059D01*
X186197333Y-172405202D01*
X186149714Y-172214726D01*
X186102095Y-172119488D01*
X186006857Y-172024250D01*
X185864000Y-171976630D01*
X185768761Y-171976630D01*
X185625904Y-172024250D01*
X185578285Y-172071869D01*
X185149714Y-172976630D02*
X185149714Y-171976630D01*
X184578285Y-172976630D02*
X185006857Y-172405202D01*
X184578285Y-171976630D02*
X185149714Y-172548059D01*
X178375904Y-174524250D02*
X178471142Y-174476630D01*
X178614000Y-174476630D01*
X178756857Y-174524250D01*
X178852095Y-174619488D01*
X178899714Y-174714726D01*
X178947333Y-174905202D01*
X178947333Y-175048059D01*
X178899714Y-175238535D01*
X178852095Y-175333773D01*
X178756857Y-175429011D01*
X178614000Y-175476630D01*
X178518761Y-175476630D01*
X178375904Y-175429011D01*
X178328285Y-175381392D01*
X178328285Y-175048059D01*
X178518761Y-175048059D01*
X177899714Y-175476630D02*
X177899714Y-174476630D01*
X177328285Y-175476630D01*
X177328285Y-174476630D01*
X176852095Y-175476630D02*
X176852095Y-174476630D01*
X176614000Y-174476630D01*
X176471142Y-174524250D01*
X176375904Y-174619488D01*
X176328285Y-174714726D01*
X176280666Y-174905202D01*
X176280666Y-175048059D01*
X176328285Y-175238535D01*
X176375904Y-175333773D01*
X176471142Y-175429011D01*
X176614000Y-175476630D01*
X176852095Y-175476630D01*
X179185428Y-172976630D02*
X179185428Y-171976630D01*
X178852095Y-172690916D01*
X178518761Y-171976630D01*
X178518761Y-172976630D01*
X177852095Y-171976630D02*
X177661619Y-171976630D01*
X177566380Y-172024250D01*
X177471142Y-172119488D01*
X177423523Y-172309964D01*
X177423523Y-172643297D01*
X177471142Y-172833773D01*
X177566380Y-172929011D01*
X177661619Y-172976630D01*
X177852095Y-172976630D01*
X177947333Y-172929011D01*
X178042571Y-172833773D01*
X178090190Y-172643297D01*
X178090190Y-172309964D01*
X178042571Y-172119488D01*
X177947333Y-172024250D01*
X177852095Y-171976630D01*
X177042571Y-172929011D02*
X176899714Y-172976630D01*
X176661619Y-172976630D01*
X176566380Y-172929011D01*
X176518761Y-172881392D01*
X176471142Y-172786154D01*
X176471142Y-172690916D01*
X176518761Y-172595678D01*
X176566380Y-172548059D01*
X176661619Y-172500440D01*
X176852095Y-172452821D01*
X176947333Y-172405202D01*
X176994952Y-172357583D01*
X177042571Y-172262345D01*
X177042571Y-172167107D01*
X176994952Y-172071869D01*
X176947333Y-172024250D01*
X176852095Y-171976630D01*
X176614000Y-171976630D01*
X176471142Y-172024250D01*
X176042571Y-172976630D02*
X176042571Y-171976630D01*
D11*
X189214000Y-122900000D02*
X189214000Y-119000000D01*
X189214000Y-122900000D02*
X187214000Y-122900000D01*
X187214000Y-122900000D02*
X187214000Y-119000000D01*
X208264000Y-122900000D02*
X206264000Y-122900000D01*
X206264000Y-122900000D02*
X206264000Y-119000000D01*
X208264000Y-122900000D02*
X208264000Y-119000000D01*
X79994000Y-141950000D02*
X79994000Y-138050000D01*
X79994000Y-141950000D02*
X77994000Y-141950000D01*
X77994000Y-141950000D02*
X77994000Y-138050000D01*
X98917000Y-141950000D02*
X98917000Y-138050000D01*
X96917000Y-141950000D02*
X96917000Y-138050000D01*
X98917000Y-141950000D02*
X96917000Y-141950000D01*
X30496000Y-161000000D02*
X30496000Y-157100000D01*
X32496000Y-161000000D02*
X30496000Y-161000000D01*
X32496000Y-161000000D02*
X32496000Y-157100000D01*
X51419000Y-160873000D02*
X51419000Y-156973000D01*
X51419000Y-160873000D02*
X49419000Y-160873000D01*
X49419000Y-160873000D02*
X49419000Y-156973000D01*
X89519000Y-161000000D02*
X87519000Y-161000000D01*
X89519000Y-161000000D02*
X89519000Y-157100000D01*
X87519000Y-161000000D02*
X87519000Y-157100000D01*
X201565000Y-161000000D02*
X201565000Y-157100000D01*
X203565000Y-161000000D02*
X203565000Y-157100000D01*
X203565000Y-161000000D02*
X201565000Y-161000000D01*
X270526000Y-156428000D02*
X270526000Y-152528000D01*
X272526000Y-156428000D02*
X272526000Y-152528000D01*
X272526000Y-156428000D02*
X270526000Y-156428000D01*
X37195000Y-180050000D02*
X37195000Y-176150000D01*
X37195000Y-180050000D02*
X35195000Y-180050000D01*
X35195000Y-180050000D02*
X35195000Y-176150000D01*
X61071000Y-180050000D02*
X59071000Y-180050000D01*
X61071000Y-180050000D02*
X61071000Y-176150000D01*
X59071000Y-180050000D02*
X59071000Y-176150000D01*
X123206000Y-179796000D02*
X123206000Y-175896000D01*
X125206000Y-179796000D02*
X123206000Y-179796000D01*
X125206000Y-179796000D02*
X125206000Y-175896000D01*
X246237000Y-180050000D02*
X244237000Y-180050000D01*
X246237000Y-180050000D02*
X246237000Y-176150000D01*
X244237000Y-180050000D02*
X244237000Y-176150000D01*
X269986000Y-180050000D02*
X269986000Y-176150000D01*
X269986000Y-180050000D02*
X267986000Y-180050000D01*
X267986000Y-180050000D02*
X267986000Y-176150000D01*
X122793000Y-103850000D02*
X120793000Y-103850000D01*
X122793000Y-103850000D02*
X122793000Y-99950000D01*
X120793000Y-103850000D02*
X120793000Y-99950000D01*
X236712000Y-103850000D02*
X234712000Y-103850000D01*
X234712000Y-103850000D02*
X234712000Y-99950000D01*
X236712000Y-103850000D02*
X236712000Y-99950000D01*
X196739000Y-103850000D02*
X196739000Y-99950000D01*
X198739000Y-103850000D02*
X198739000Y-99950000D01*
X198739000Y-103850000D02*
X196739000Y-103850000D01*
X73295000Y-122900000D02*
X73295000Y-119000000D01*
X75295000Y-122900000D02*
X75295000Y-119000000D01*
X75295000Y-122900000D02*
X73295000Y-122900000D01*
X37195000Y-122900000D02*
X35195000Y-122900000D01*
X37195000Y-122900000D02*
X37195000Y-119000000D01*
X35195000Y-122900000D02*
X35195000Y-119000000D01*
X11573000Y-122900000D02*
X11573000Y-119000000D01*
X13573000Y-122900000D02*
X11573000Y-122900000D01*
X13573000Y-122900000D02*
X13573000Y-119000000D01*
X46720000Y-103850000D02*
X46720000Y-99950000D01*
X44720000Y-103850000D02*
X44720000Y-99950000D01*
X46720000Y-103850000D02*
X44720000Y-103850000D01*
X27670000Y-103850000D02*
X27670000Y-99950000D01*
X25670000Y-103850000D02*
X25670000Y-99950000D01*
X27670000Y-103850000D02*
X25670000Y-103850000D01*
X177689000Y-103850000D02*
X177689000Y-99950000D01*
X179689000Y-103850000D02*
X177689000Y-103850000D01*
X179689000Y-103850000D02*
X179689000Y-99950000D01*
X56118000Y-122900000D02*
X54118000Y-122900000D01*
X56118000Y-122900000D02*
X56118000Y-119000000D01*
X54118000Y-122900000D02*
X54118000Y-119000000D01*
X126508000Y-108353250D02*
X126508000Y-104453250D01*
X128508000Y-108353250D02*
X128508000Y-104453250D01*
X128508000Y-108353250D02*
X126508000Y-108353250D01*
X65770000Y-103850000D02*
X63770000Y-103850000D01*
X65770000Y-103850000D02*
X65770000Y-99950000D01*
X63770000Y-103850000D02*
X63770000Y-99950000D01*
X101743000Y-103850000D02*
X101743000Y-99950000D01*
X103743000Y-103850000D02*
X101743000Y-103850000D01*
X103743000Y-103850000D02*
X103743000Y-99950000D01*
X92218000Y-122900000D02*
X92218000Y-119000000D01*
X94218000Y-122900000D02*
X92218000Y-122900000D01*
X94218000Y-122900000D02*
X94218000Y-119000000D01*
X217789000Y-103850000D02*
X215789000Y-103850000D01*
X215789000Y-103850000D02*
X215789000Y-99950000D01*
X217789000Y-103850000D02*
X217789000Y-99950000D01*
X160766000Y-103977000D02*
X160766000Y-100077000D01*
X160766000Y-103977000D02*
X158766000Y-103977000D01*
X158766000Y-103977000D02*
X158766000Y-100077000D01*
X253857000Y-108422000D02*
X253857000Y-104522000D01*
X253857000Y-108422000D02*
X251857000Y-108422000D01*
X251857000Y-108422000D02*
X251857000Y-104522000D01*
X84693000Y-103850000D02*
X82693000Y-103850000D01*
X84693000Y-103850000D02*
X84693000Y-99950000D01*
X82693000Y-103850000D02*
X82693000Y-99950000D01*
X6747000Y-103850000D02*
X6747000Y-99950000D01*
X8747000Y-103850000D02*
X6747000Y-103850000D01*
X8747000Y-103850000D02*
X8747000Y-99950000D01*
X11679422Y-143874250D02*
X12196578Y-143874250D01*
X11679422Y-145294250D02*
X12196578Y-145294250D01*
X232013000Y-141950000D02*
X230013000Y-141950000D01*
X230013000Y-141950000D02*
X230013000Y-138050000D01*
X232013000Y-141950000D02*
X232013000Y-138050000D01*
X266482000Y-104791000D02*
X270382000Y-104791000D01*
X266482000Y-106791000D02*
X266482000Y-104791000D01*
X266482000Y-106791000D02*
X270382000Y-106791000D01*
X17998000Y-160729250D02*
X17998000Y-162729250D01*
X17998000Y-162729250D02*
X14098000Y-162729250D01*
X17998000Y-160729250D02*
X14098000Y-160729250D01*
X254143000Y-156428000D02*
X254143000Y-152528000D01*
X256143000Y-156428000D02*
X256143000Y-152528000D01*
X256143000Y-156428000D02*
X254143000Y-156428000D01*
X163465000Y-161000000D02*
X163465000Y-157100000D01*
X165465000Y-161000000D02*
X163465000Y-161000000D01*
X165465000Y-161000000D02*
X165465000Y-157100000D01*
X68469000Y-161000000D02*
X68469000Y-157100000D01*
X70469000Y-161000000D02*
X68469000Y-161000000D01*
X70469000Y-161000000D02*
X70469000Y-157100000D01*
X184515000Y-161000000D02*
X184515000Y-157100000D01*
X182515000Y-161000000D02*
X182515000Y-157100000D01*
X184515000Y-161000000D02*
X182515000Y-161000000D01*
X108442000Y-161000000D02*
X106442000Y-161000000D01*
X108442000Y-161000000D02*
X108442000Y-157100000D01*
X106442000Y-161000000D02*
X106442000Y-157100000D01*
X210963000Y-141950000D02*
X210963000Y-138050000D01*
X212963000Y-141950000D02*
X210963000Y-141950000D01*
X212963000Y-141950000D02*
X212963000Y-138050000D01*
X193913000Y-141950000D02*
X191913000Y-141950000D01*
X193913000Y-141950000D02*
X193913000Y-138050000D01*
X191913000Y-141950000D02*
X191913000Y-138050000D01*
X262874000Y-141950000D02*
X260874000Y-141950000D01*
X262874000Y-141950000D02*
X262874000Y-138050000D01*
X260874000Y-141950000D02*
X260874000Y-138050000D01*
X144415000Y-161000000D02*
X144415000Y-157100000D01*
X146415000Y-161000000D02*
X144415000Y-161000000D01*
X146415000Y-161000000D02*
X146415000Y-157100000D01*
X127492000Y-161000000D02*
X125492000Y-161000000D01*
X127492000Y-161000000D02*
X127492000Y-157100000D01*
X125492000Y-161000000D02*
X125492000Y-157100000D01*
X254492000Y-122958250D02*
X252492000Y-122958250D01*
X252492000Y-122958250D02*
X252492000Y-119058250D01*
X254492000Y-122958250D02*
X254492000Y-119058250D01*
X113268000Y-122900000D02*
X111268000Y-122900000D01*
X111268000Y-122900000D02*
X111268000Y-119000000D01*
X113268000Y-122900000D02*
X113268000Y-119000000D01*
X132191000Y-122900000D02*
X132191000Y-119000000D01*
X130191000Y-122900000D02*
X130191000Y-119000000D01*
X132191000Y-122900000D02*
X130191000Y-122900000D01*
X60944000Y-141950000D02*
X58944000Y-141950000D01*
X60944000Y-141950000D02*
X60944000Y-138050000D01*
X58944000Y-141950000D02*
X58944000Y-138050000D01*
X42021000Y-141950000D02*
X42021000Y-138050000D01*
X40021000Y-141950000D02*
X40021000Y-138050000D01*
X42021000Y-141950000D02*
X40021000Y-141950000D01*
X172990000Y-141950000D02*
X172990000Y-138050000D01*
X174990000Y-141950000D02*
X172990000Y-141950000D01*
X174990000Y-141950000D02*
X174990000Y-138050000D01*
X244237000Y-122900000D02*
X244237000Y-119000000D01*
X246237000Y-122900000D02*
X244237000Y-122900000D01*
X246237000Y-122900000D02*
X246237000Y-119000000D01*
X153940000Y-141950000D02*
X153940000Y-138050000D01*
X155940000Y-141950000D02*
X153940000Y-141950000D01*
X155940000Y-141950000D02*
X155940000Y-138050000D01*
X225187000Y-122900000D02*
X225187000Y-119000000D01*
X227187000Y-122900000D02*
X227187000Y-119000000D01*
X227187000Y-122900000D02*
X225187000Y-122900000D01*
X117967000Y-141950000D02*
X117967000Y-138050000D01*
X117967000Y-141950000D02*
X115967000Y-141950000D01*
X115967000Y-141950000D02*
X115967000Y-138050000D01*
X151241000Y-122900000D02*
X149241000Y-122900000D01*
X149241000Y-122900000D02*
X149241000Y-119000000D01*
X151241000Y-122900000D02*
X151241000Y-119000000D01*
X15859000Y-141950000D02*
X15859000Y-138050000D01*
X15859000Y-141950000D02*
X13859000Y-141950000D01*
X13859000Y-141950000D02*
X13859000Y-138050000D01*
X170291000Y-122900000D02*
X170291000Y-119000000D01*
X170291000Y-122900000D02*
X168291000Y-122900000D01*
X168291000Y-122900000D02*
X168291000Y-119000000D01*
X137017000Y-141950000D02*
X135017000Y-141950000D01*
X135017000Y-141950000D02*
X135017000Y-138050000D01*
X137017000Y-141950000D02*
X137017000Y-138050000D01*
X11446000Y-179923000D02*
X11446000Y-176023000D01*
X13446000Y-179923000D02*
X11446000Y-179923000D01*
X13446000Y-179923000D02*
X13446000Y-176023000D01*
X222488000Y-180050000D02*
X220488000Y-180050000D01*
X222488000Y-180050000D02*
X222488000Y-176150000D01*
X220488000Y-180050000D02*
X220488000Y-176150000D01*
X148611975Y-170300046D02*
X148246291Y-169934362D01*
X147607883Y-171304138D02*
X147242199Y-170938454D01*
X155960578Y-183117250D02*
X155443422Y-183117250D01*
X155960578Y-184537250D02*
X155443422Y-184537250D01*
X161875112Y-164204046D02*
X162240796Y-163838362D01*
X162879204Y-165208138D02*
X163244888Y-164842454D01*
X167324204Y-178289138D02*
X167689888Y-177923454D01*
X166320112Y-177285046D02*
X166685796Y-176919362D01*
X151560888Y-167382454D02*
X151195204Y-167748138D01*
X150556796Y-166378362D02*
X150191112Y-166744046D01*
X168987112Y-166236046D02*
X169352796Y-165870362D01*
X169991204Y-167240138D02*
X170356888Y-166874454D01*
X168086204Y-165335138D02*
X168451888Y-164969454D01*
X167082112Y-164331046D02*
X167447796Y-163965362D01*
X132228000Y-112928314D02*
X132228000Y-111724186D01*
X130408000Y-112928314D02*
X130408000Y-111724186D01*
D12*
X179364000Y-176274250D02*
X184364000Y-176274250D01*
X179364000Y-173774250D02*
X179364000Y-176274250D01*
X184364000Y-173774250D02*
X179364000Y-173774250D01*
X184364000Y-176274250D02*
X184364000Y-173774250D01*
D11*
X174190922Y-181870250D02*
X174708078Y-181870250D01*
X174190922Y-180450250D02*
X174708078Y-180450250D01*
X129234000Y-97471828D02*
X129234000Y-96954672D01*
X127814000Y-97471828D02*
X127814000Y-96954672D01*
X136473000Y-113473828D02*
X136473000Y-112956672D01*
X135053000Y-113473828D02*
X135053000Y-112956672D01*
X133021000Y-113473828D02*
X133021000Y-112956672D01*
X134441000Y-113473828D02*
X134441000Y-112956672D01*
X136704000Y-97647328D02*
X136704000Y-97130172D01*
X138124000Y-97647328D02*
X138124000Y-97130172D01*
X159253422Y-183117250D02*
X159770578Y-183117250D01*
X159253422Y-184537250D02*
X159770578Y-184537250D01*
D10*
X133970000Y-107193250D02*
X135270000Y-107193250D01*
X135270000Y-110093250D02*
X133970000Y-110093250D01*
X135270000Y-107193250D02*
X135270000Y-110093250D01*
X133970000Y-107193250D02*
X133970000Y-110093250D01*
X157734000Y-167687445D02*
X157256703Y-168164742D01*
X150415445Y-175006000D02*
X150892742Y-175483297D01*
X150822031Y-174599414D02*
X149920470Y-173697852D01*
X157734000Y-182324555D02*
X158211297Y-181847258D01*
X157734000Y-182324555D02*
X157256703Y-181847258D01*
X150415445Y-175006000D02*
X150822031Y-174599414D01*
X165052555Y-175006000D02*
X164575258Y-175483297D01*
X165052555Y-175006000D02*
X164575258Y-174528703D01*
X157734000Y-167687445D02*
X158211297Y-168164742D01*
D11*
X220488000Y-160873000D02*
X220488000Y-156973000D01*
X222488000Y-160873000D02*
X220488000Y-160873000D01*
X222488000Y-160873000D02*
X222488000Y-156973000D01*
X4186422Y-107321250D02*
X4703578Y-107321250D01*
X4186422Y-105901250D02*
X4703578Y-105901250D01*
X166109487Y-171041190D02*
X163281060Y-168212763D01*
X168442940Y-168707737D02*
X166109487Y-171041190D01*
%LPC*%
D13*
X-5080000Y-101531250D03*
D14*
X0Y-101531250D03*
D13*
X5080000Y-101531250D03*
D15*
X-3810000Y-98991250D03*
X2540000Y-96451250D03*
D16*
X-1270000Y-106611250D03*
D17*
X1270000Y-106611250D03*
D14*
X19000000Y-101531250D03*
D13*
X13920000Y-101531250D03*
X24080000Y-101531250D03*
D15*
X15190000Y-98991250D03*
X21540000Y-96451250D03*
D13*
X32920000Y-101531250D03*
X43080000Y-101531250D03*
D14*
X38000000Y-101531250D03*
D15*
X34190000Y-98991250D03*
X40540000Y-96451250D03*
D13*
X51920000Y-101531250D03*
X62080000Y-101531250D03*
D14*
X57000000Y-101531250D03*
D15*
X53190000Y-98991250D03*
X59540000Y-96451250D03*
D14*
X76000000Y-101531250D03*
D13*
X81080000Y-101531250D03*
X70920000Y-101531250D03*
D15*
X72190000Y-98991250D03*
X78540000Y-96451250D03*
D13*
X100080000Y-101531250D03*
X89920000Y-101531250D03*
D14*
X95000000Y-101531250D03*
D15*
X91190000Y-98991250D03*
X97540000Y-96451250D03*
D13*
X108920000Y-101531250D03*
X119080000Y-101531250D03*
D14*
X114000000Y-101531250D03*
D15*
X110190000Y-98991250D03*
X116540000Y-96451250D03*
D14*
X152000000Y-101531250D03*
D13*
X157080000Y-101531250D03*
X146920000Y-101531250D03*
D15*
X148190000Y-98991250D03*
X154540000Y-96451250D03*
D13*
X165920000Y-101531250D03*
D14*
X171000000Y-101531250D03*
D13*
X176080000Y-101531250D03*
D15*
X167190000Y-98991250D03*
X173540000Y-96451250D03*
D13*
X184920000Y-101531250D03*
D14*
X190000000Y-101531250D03*
D13*
X195080000Y-101531250D03*
D15*
X186190000Y-98991250D03*
X192540000Y-96451250D03*
D14*
X209000000Y-101531250D03*
D13*
X214080000Y-101531250D03*
X203920000Y-101531250D03*
D15*
X205190000Y-98991250D03*
X211540000Y-96451250D03*
D14*
X228000000Y-101531250D03*
D13*
X233080000Y-101531250D03*
X222920000Y-101531250D03*
D15*
X224190000Y-98991250D03*
X230540000Y-96451250D03*
D14*
X244562000Y-109786250D03*
X256500000Y-101531250D03*
D13*
X251420000Y-101531250D03*
D14*
X268438000Y-109786250D03*
D18*
X244562000Y-94546250D03*
D13*
X261580000Y-101531250D03*
D18*
X268438000Y-94546250D03*
D15*
X252690000Y-98991250D03*
X259040000Y-96451250D03*
D13*
X9830000Y-120531250D03*
X-330000Y-120531250D03*
D14*
X4750000Y-120531250D03*
D15*
X940000Y-117991250D03*
X7290000Y-115451250D03*
D13*
X33580000Y-120531250D03*
X23420000Y-120531250D03*
D14*
X28500000Y-120531250D03*
D15*
X24690000Y-117991250D03*
X31040000Y-115451250D03*
D14*
X47500000Y-120531250D03*
D13*
X42420000Y-120531250D03*
X52580000Y-120531250D03*
D15*
X43690000Y-117991250D03*
X50040000Y-115451250D03*
D13*
X61420000Y-120531250D03*
D14*
X66500000Y-120531250D03*
D13*
X71580000Y-120531250D03*
D15*
X62690000Y-117991250D03*
X69040000Y-115451250D03*
D14*
X85500000Y-120531250D03*
D13*
X80420000Y-120531250D03*
X90580000Y-120531250D03*
D15*
X81690000Y-117991250D03*
X88040000Y-115451250D03*
D14*
X104500000Y-120531250D03*
D13*
X99420000Y-120531250D03*
X109580000Y-120531250D03*
D15*
X100690000Y-117991250D03*
X107040000Y-115451250D03*
D13*
X128580000Y-120531250D03*
D14*
X123500000Y-120531250D03*
D13*
X118420000Y-120531250D03*
D15*
X119690000Y-117991250D03*
X126040000Y-115451250D03*
D13*
X147580000Y-120531250D03*
D14*
X142500000Y-120531250D03*
D13*
X137420000Y-120531250D03*
D15*
X138690000Y-117991250D03*
X145040000Y-115451250D03*
D13*
X166580000Y-120531250D03*
D14*
X161500000Y-120531250D03*
D13*
X156420000Y-120531250D03*
D15*
X157690000Y-117991250D03*
X164040000Y-115451250D03*
D14*
X180500000Y-120531250D03*
D13*
X185580000Y-120531250D03*
X175420000Y-120531250D03*
D15*
X176690000Y-117991250D03*
X183040000Y-115451250D03*
D13*
X204580000Y-120531250D03*
D14*
X199500000Y-120531250D03*
D13*
X194420000Y-120531250D03*
D15*
X195690000Y-117991250D03*
X202040000Y-115451250D03*
D14*
X218500000Y-120531250D03*
D13*
X223580000Y-120531250D03*
X213420000Y-120531250D03*
D15*
X214690000Y-117991250D03*
X221040000Y-115451250D03*
D13*
X242580000Y-120531250D03*
X232420000Y-120531250D03*
D14*
X237500000Y-120531250D03*
D15*
X233690000Y-117991250D03*
X240040000Y-115451250D03*
D14*
X261250000Y-120531250D03*
D13*
X266330000Y-120531250D03*
X256170000Y-120531250D03*
D15*
X257440000Y-117991250D03*
X263790000Y-115451250D03*
D14*
X7125000Y-139531250D03*
D13*
X12205000Y-139531250D03*
X2045000Y-139531250D03*
D15*
X3315000Y-136991250D03*
X9665000Y-134451250D03*
D16*
X5855000Y-144611250D03*
D17*
X8395000Y-144611250D03*
D13*
X47170000Y-139531250D03*
D14*
X52250000Y-139531250D03*
D13*
X57330000Y-139531250D03*
D15*
X48440000Y-136991250D03*
X54790000Y-134451250D03*
D13*
X66170000Y-139531250D03*
X76330000Y-139531250D03*
D14*
X71250000Y-139531250D03*
D15*
X67440000Y-136991250D03*
X73790000Y-134451250D03*
D13*
X85170000Y-139531250D03*
D14*
X90250000Y-139531250D03*
D13*
X95330000Y-139531250D03*
D15*
X86440000Y-136991250D03*
X92790000Y-134451250D03*
D13*
X104170000Y-139531250D03*
X114330000Y-139531250D03*
D14*
X109250000Y-139531250D03*
D15*
X105440000Y-136991250D03*
X111790000Y-134451250D03*
D13*
X133330000Y-139531250D03*
D14*
X128250000Y-139531250D03*
D13*
X123170000Y-139531250D03*
D15*
X124440000Y-136991250D03*
X130790000Y-134451250D03*
D13*
X171330000Y-139531250D03*
X161170000Y-139531250D03*
D14*
X166250000Y-139531250D03*
D15*
X162440000Y-136991250D03*
X168790000Y-134451250D03*
D13*
X190330000Y-139531250D03*
D14*
X185250000Y-139531250D03*
D13*
X180170000Y-139531250D03*
D15*
X181440000Y-136991250D03*
X187790000Y-134451250D03*
D13*
X199170000Y-139531250D03*
D14*
X204250000Y-139531250D03*
D13*
X209330000Y-139531250D03*
D15*
X200440000Y-136991250D03*
X206790000Y-134451250D03*
D13*
X218170000Y-139531250D03*
D14*
X223250000Y-139531250D03*
D13*
X228330000Y-139531250D03*
D15*
X219440000Y-136991250D03*
X225790000Y-134451250D03*
D13*
X247330000Y-139531250D03*
D14*
X242250000Y-139531250D03*
D13*
X237170000Y-139531250D03*
D15*
X238440000Y-136991250D03*
X244790000Y-134451250D03*
D13*
X7455000Y-158531250D03*
D14*
X2375000Y-158531250D03*
D13*
X-2705000Y-158531250D03*
D15*
X-1435000Y-155991250D03*
X4915000Y-153451250D03*
D13*
X18670000Y-158531250D03*
X28830000Y-158531250D03*
D14*
X23750000Y-158531250D03*
D15*
X19940000Y-155991250D03*
X26290000Y-153451250D03*
D14*
X42750000Y-158531250D03*
D13*
X37670000Y-158531250D03*
X47830000Y-158531250D03*
D15*
X38940000Y-155991250D03*
X45290000Y-153451250D03*
D13*
X56670000Y-158531250D03*
X66830000Y-158531250D03*
D14*
X61750000Y-158531250D03*
D15*
X57940000Y-155991250D03*
X64290000Y-153451250D03*
D13*
X85830000Y-158531250D03*
D14*
X80750000Y-158531250D03*
D13*
X75670000Y-158531250D03*
D15*
X76940000Y-155991250D03*
X83290000Y-153451250D03*
D13*
X104830000Y-158531250D03*
D14*
X99750000Y-158531250D03*
D13*
X94670000Y-158531250D03*
D15*
X95940000Y-155991250D03*
X102290000Y-153451250D03*
D14*
X118750000Y-158531250D03*
D13*
X113670000Y-158531250D03*
X123830000Y-158531250D03*
D15*
X114940000Y-155991250D03*
X121290000Y-153451250D03*
D13*
X142830000Y-158531250D03*
X132670000Y-158531250D03*
D14*
X137750000Y-158531250D03*
D15*
X133940000Y-155991250D03*
X140290000Y-153451250D03*
D14*
X175750000Y-158531250D03*
D13*
X170670000Y-158531250D03*
X180830000Y-158531250D03*
D15*
X171940000Y-155991250D03*
X178290000Y-153451250D03*
D14*
X194750000Y-158531250D03*
D13*
X189670000Y-158531250D03*
X199830000Y-158531250D03*
D15*
X190940000Y-155991250D03*
X197290000Y-153451250D03*
D14*
X213750000Y-158531250D03*
D13*
X208670000Y-158531250D03*
X218830000Y-158531250D03*
D15*
X209940000Y-155991250D03*
X216290000Y-153451250D03*
D13*
X244955000Y-158531250D03*
X234795000Y-158531250D03*
D14*
X239875000Y-158531250D03*
D15*
X236065000Y-155991250D03*
X242415000Y-153451250D03*
D14*
X4750000Y-177531250D03*
D13*
X9830000Y-177531250D03*
X-330000Y-177531250D03*
D15*
X940000Y-174991250D03*
X7290000Y-172451250D03*
D13*
X23420000Y-177531250D03*
D14*
X28500000Y-177531250D03*
D13*
X33580000Y-177531250D03*
D15*
X24690000Y-174991250D03*
X31040000Y-172451250D03*
D14*
X52250000Y-177531250D03*
D13*
X57330000Y-177531250D03*
X47170000Y-177531250D03*
D15*
X48440000Y-174991250D03*
X54790000Y-172451250D03*
D13*
X138080000Y-177531250D03*
D18*
X190150000Y-184516250D03*
D14*
X133000000Y-177531250D03*
D13*
X127920000Y-177531250D03*
D18*
X75850000Y-184516250D03*
D14*
X190150000Y-169276250D03*
X75850000Y-169276250D03*
D15*
X129190000Y-174991250D03*
X135540000Y-172451250D03*
D14*
X213750000Y-177531250D03*
D13*
X208670000Y-177531250D03*
X218830000Y-177531250D03*
D15*
X209940000Y-174991250D03*
X216290000Y-172451250D03*
D13*
X232420000Y-177531250D03*
D14*
X237500000Y-177531250D03*
D13*
X242580000Y-177531250D03*
D15*
X233690000Y-174991250D03*
X240040000Y-172451250D03*
D13*
X266330000Y-177531250D03*
X256170000Y-177531250D03*
D14*
X261250000Y-177531250D03*
D15*
X257440000Y-174991250D03*
X263790000Y-172451250D03*
D13*
X241920000Y-101531250D03*
D14*
X247000000Y-101531250D03*
D13*
X252080000Y-101531250D03*
D15*
X243190000Y-98991250D03*
X249540000Y-96451250D03*
D14*
X271880000Y-118093250D03*
D13*
X263625000Y-135111250D03*
D14*
X263625000Y-130031250D03*
D18*
X256640000Y-118093250D03*
D13*
X263625000Y-124951250D03*
D18*
X256640000Y-141969250D03*
D14*
X271880000Y-141969250D03*
D15*
X266165000Y-126221250D03*
X268705000Y-132571250D03*
D13*
X-2705000Y-139531250D03*
D14*
X2375000Y-139531250D03*
D13*
X7455000Y-139531250D03*
D15*
X-1435000Y-136991250D03*
X4915000Y-134451250D03*
D16*
X3645000Y-144611250D03*
D17*
X1105000Y-144611250D03*
D18*
X23813000Y-151546250D03*
D13*
X16955000Y-158531250D03*
D14*
X23813000Y-166786250D03*
D13*
X6795000Y-158531250D03*
D14*
X-63000Y-166786250D03*
D18*
X-63000Y-151546250D03*
D14*
X11875000Y-158531250D03*
D15*
X8065000Y-155991250D03*
X14415000Y-153451250D03*
D18*
X237437000Y-151546250D03*
D14*
X249375000Y-158531250D03*
D18*
X261313000Y-151546250D03*
D14*
X261313000Y-166786250D03*
X237437000Y-166786250D03*
D13*
X254455000Y-158531250D03*
X244295000Y-158531250D03*
D15*
X245565000Y-155991250D03*
X251915000Y-153451250D03*
D13*
X260920000Y-101531250D03*
X271080000Y-101531250D03*
D14*
X266000000Y-101531250D03*
D15*
X262190000Y-98991250D03*
X268540000Y-96451250D03*
D13*
X142170000Y-139531250D03*
D14*
X147250000Y-139531250D03*
D13*
X152330000Y-139531250D03*
D15*
X143440000Y-136991250D03*
X149790000Y-134451250D03*
D13*
X38330000Y-139531250D03*
X28170000Y-139531250D03*
D14*
X33250000Y-139531250D03*
D15*
X29440000Y-136991250D03*
X35790000Y-134451250D03*
D13*
X271080000Y-158531250D03*
D14*
X266000000Y-158531250D03*
D13*
X260920000Y-158531250D03*
D15*
X262190000Y-155991250D03*
X268540000Y-153451250D03*
D13*
X161830000Y-158531250D03*
D14*
X156750000Y-158531250D03*
D13*
X151670000Y-158531250D03*
D15*
X152940000Y-155991250D03*
X159290000Y-153451250D03*
D14*
X242187000Y-147786250D03*
X266063000Y-147786250D03*
D13*
X249045000Y-139531250D03*
D18*
X242187000Y-132546250D03*
X266063000Y-132546250D03*
D14*
X254125000Y-139531250D03*
D13*
X259205000Y-139531250D03*
D15*
X250315000Y-136991250D03*
X256665000Y-134451250D03*
D19*
X180594000Y-180271250D03*
X183134000Y-180271250D03*
D13*
X138080560Y-101527200D03*
D14*
X133000560Y-101527200D03*
D13*
X127920560Y-101527200D03*
D15*
X136810560Y-104067200D03*
X130460560Y-106607200D03*
D20*
X188214000Y-122300000D03*
X188214000Y-119000000D03*
X207264000Y-122300000D03*
X207264000Y-119000000D03*
X78994000Y-141350000D03*
X78994000Y-138050000D03*
X97917000Y-141350000D03*
X97917000Y-138050000D03*
X31496000Y-160400000D03*
X31496000Y-157100000D03*
X50419000Y-160273000D03*
X50419000Y-156973000D03*
X88519000Y-160400000D03*
X88519000Y-157100000D03*
X202565000Y-160400000D03*
X202565000Y-157100000D03*
X271526000Y-155828000D03*
X271526000Y-152528000D03*
X36195000Y-179450000D03*
X36195000Y-176150000D03*
X60071000Y-179450000D03*
X60071000Y-176150000D03*
X124206000Y-179196000D03*
X124206000Y-175896000D03*
X245237000Y-179450000D03*
X245237000Y-176150000D03*
X268986000Y-179450000D03*
X268986000Y-176150000D03*
X121793000Y-103250000D03*
X121793000Y-99950000D03*
X235712000Y-103250000D03*
X235712000Y-99950000D03*
X197739000Y-103250000D03*
X197739000Y-99950000D03*
X74295000Y-122300000D03*
X74295000Y-119000000D03*
X36195000Y-122300000D03*
X36195000Y-119000000D03*
X12573000Y-122300000D03*
X12573000Y-119000000D03*
X45720000Y-103250000D03*
X45720000Y-99950000D03*
X26670000Y-103250000D03*
X26670000Y-99950000D03*
X178689000Y-103250000D03*
X178689000Y-99950000D03*
X55118000Y-122300000D03*
X55118000Y-119000000D03*
X127508000Y-107753250D03*
X127508000Y-104453250D03*
X64770000Y-103250000D03*
X64770000Y-99950000D03*
X102743000Y-103250000D03*
X102743000Y-99950000D03*
X93218000Y-122300000D03*
X93218000Y-119000000D03*
X216789000Y-103250000D03*
X216789000Y-99950000D03*
X159766000Y-103377000D03*
X159766000Y-100077000D03*
X252857000Y-107822000D03*
X252857000Y-104522000D03*
X83693000Y-103250000D03*
X83693000Y-99950000D03*
X7747000Y-103250000D03*
X7747000Y-99950000D03*
D21*
X11000500Y-144584250D03*
X12875500Y-144584250D03*
D20*
X231013000Y-141350000D03*
X231013000Y-138050000D03*
D22*
X267082000Y-105791000D03*
X270382000Y-105791000D03*
X17398000Y-161729250D03*
X14098000Y-161729250D03*
D20*
X255143000Y-155828000D03*
X255143000Y-152528000D03*
X164465000Y-160400000D03*
X164465000Y-157100000D03*
X69469000Y-160400000D03*
X69469000Y-157100000D03*
X183515000Y-160400000D03*
X183515000Y-157100000D03*
X107442000Y-160400000D03*
X107442000Y-157100000D03*
X211963000Y-141350000D03*
X211963000Y-138050000D03*
X192913000Y-141350000D03*
X192913000Y-138050000D03*
X261874000Y-141350000D03*
X261874000Y-138050000D03*
X145415000Y-160400000D03*
X145415000Y-157100000D03*
X126492000Y-160400000D03*
X126492000Y-157100000D03*
X253492000Y-122358250D03*
X253492000Y-119058250D03*
X112268000Y-122300000D03*
X112268000Y-119000000D03*
X131191000Y-122300000D03*
X131191000Y-119000000D03*
X59944000Y-141350000D03*
X59944000Y-138050000D03*
X41021000Y-141350000D03*
X41021000Y-138050000D03*
X173990000Y-141350000D03*
X173990000Y-138050000D03*
X245237000Y-122300000D03*
X245237000Y-119000000D03*
X154940000Y-141350000D03*
X154940000Y-138050000D03*
X226187000Y-122300000D03*
X226187000Y-119000000D03*
X116967000Y-141350000D03*
X116967000Y-138050000D03*
X150241000Y-122300000D03*
X150241000Y-119000000D03*
X14859000Y-141350000D03*
X14859000Y-138050000D03*
X169291000Y-122300000D03*
X169291000Y-119000000D03*
X136017000Y-141350000D03*
X136017000Y-138050000D03*
X12446000Y-179323000D03*
X12446000Y-176023000D03*
X221488000Y-179450000D03*
X221488000Y-176150000D03*
D23*
X148590000Y-171282163D03*
X147264174Y-169956337D03*
D24*
X156639500Y-183827250D03*
X154764500Y-183827250D03*
D25*
X161897087Y-165186163D03*
X163222913Y-163860337D03*
X166342087Y-178267163D03*
X167667913Y-176941337D03*
D26*
X151538913Y-166400337D03*
X150213087Y-167726163D03*
D25*
X169009087Y-167218163D03*
X170334913Y-165892337D03*
X167104087Y-165313163D03*
X168429913Y-163987337D03*
D27*
X131318000Y-113726250D03*
X131318000Y-110926250D03*
D28*
X183134000Y-169984250D03*
X180594000Y-169984250D03*
X183134000Y-172524250D03*
X180594000Y-172524250D03*
X183134000Y-175064250D03*
D29*
X180594000Y-175064250D03*
D21*
X173512000Y-181160250D03*
X175387000Y-181160250D03*
D30*
X128524000Y-98150750D03*
X128524000Y-96275750D03*
X135763000Y-114152750D03*
X135763000Y-112277750D03*
X133731000Y-114152750D03*
X133731000Y-112277750D03*
X137414000Y-98326250D03*
X137414000Y-96451250D03*
D21*
X158574500Y-183827250D03*
X160449500Y-183827250D03*
D31*
X135620000Y-107893250D03*
D32*
X135620000Y-109593250D03*
X133620000Y-109593250D03*
X133620000Y-107693250D03*
D33*
X150875064Y-173803918D03*
X151440750Y-173238233D03*
X152006435Y-172672548D03*
X152572120Y-172106862D03*
X153137806Y-171541177D03*
X153703491Y-170975491D03*
X154269177Y-170409806D03*
X154834862Y-169844120D03*
X155400548Y-169278435D03*
X155966233Y-168712750D03*
X156531918Y-168147064D03*
D34*
X158936082Y-168147064D03*
X159501767Y-168712750D03*
X160067452Y-169278435D03*
X160633138Y-169844120D03*
X161198823Y-170409806D03*
X161764509Y-170975491D03*
X162330194Y-171541177D03*
X162895880Y-172106862D03*
X163461565Y-172672548D03*
X164027250Y-173238233D03*
X164592936Y-173803918D03*
D33*
X164592936Y-176208082D03*
X164027250Y-176773767D03*
X163461565Y-177339452D03*
X162895880Y-177905138D03*
X162330194Y-178470823D03*
X161764509Y-179036509D03*
X161198823Y-179602194D03*
X160633138Y-180167880D03*
X160067452Y-180733565D03*
X159501767Y-181299250D03*
X158936082Y-181864936D03*
D34*
X156531918Y-181864936D03*
X155966233Y-181299250D03*
X155400548Y-180733565D03*
X154834862Y-180167880D03*
X154269177Y-179602194D03*
X153703491Y-179036509D03*
X153137806Y-178470823D03*
X152572120Y-177905138D03*
X152006435Y-177339452D03*
X151440750Y-176773767D03*
X150875064Y-176208082D03*
D20*
X221488000Y-160273000D03*
X221488000Y-156973000D03*
D35*
X130079000Y-93118000D03*
X135859000Y-93118000D03*
D36*
X129744000Y-94563000D03*
X130519000Y-94563000D03*
D37*
X131219000Y-94563000D03*
X131719000Y-94563000D03*
X132219000Y-94563000D03*
X132719000Y-94563000D03*
X133219000Y-94563000D03*
X133719000Y-94563000D03*
X134219000Y-94563000D03*
X134719000Y-94563000D03*
D36*
X135419000Y-94563000D03*
X136194000Y-94563000D03*
D38*
X137289000Y-93648000D03*
D39*
X137289000Y-89468000D03*
D38*
X128649000Y-93648000D03*
D39*
X128649000Y-89468000D03*
D21*
X3507500Y-106611250D03*
X5382500Y-106611250D03*
D40*
X166038777Y-169839108D03*
X164483142Y-168283473D03*
X165685223Y-167081392D03*
X167240858Y-168637027D03*
M02*
